# xmcd
#
# Track frame offsets: 
#        150
#        25032
#        39041
#        60241
#        74469
#        94377
#        109461
#        128465
#        142421
#
# Disc length: 2225 seconds
#
# Revision: 0
# Processed by: cddbd v1.5.2PL0 Copyright (c) Steve Scherf et al.
# Submitted via: ExactAudioCopy v1.0b3
#
DISCID=7908af09
DTITLE=Viet Hoan - Tam Su Truong Son
DYEAR=2007
DGENRE=
TTITLE0=Duong ra mat tran
TTITLE1=Toi la Le Anh Nuoi
TTITLE2=Toi nguoi lai xe
TTITLE3=Dem Truong Son nho Bac
TTITLE4=Bai ca ben canh vong
TTITLE5=Anh quan buu vui tinh
TTITLE6=Tieng chay tren soc Bombo
TTITLE7=Buoc chan tren day Truong Son
TTITLE8=Thoi hoa do
EXTD=
EXTT0=
EXTT1=
EXTT2=
EXTT3=
EXTT4=
EXTT5=
EXTT6=
EXTT7=
EXTT8=
PLAYORDER=
